<svg width="213" height="67" viewBox="0 0 213 67" fill="none" xmlns="http://www.w3.org/2000/svg">
<g filter="url(#filter0_g_208_3)">
<rect x="8" y="8" width="197" height="51" rx="25.5" fill="url(#paint0_linear_208_3)"/>
<rect x="8.5" y="8.5" width="196" height="50" rx="25" stroke="black" stroke-dasharray="2 2"/>
</g>
<path d="M71.6875 23.25H76.0781L76.0938 39.0156C76.0833 40.099 75.875 41.0885 75.4688 41.9844C75.0729 42.8698 74.526 43.6354 73.8281 44.2812C73.1302 44.9271 72.3073 45.4271 71.3594 45.7812C70.4219 46.1354 69.4115 46.3125 68.3281 46.3125C67.1823 46.3125 66.1406 46.1667 65.2031 45.875C64.2656 45.5833 63.4635 45.1458 62.7969 44.5625C62.1198 43.9896 61.5938 43.2656 61.2188 42.3906C60.8438 41.5156 60.651 40.4896 60.6406 39.3125H65.0469C65.0469 39.8542 65.099 40.3281 65.2031 40.7344C65.3073 41.1406 65.4635 41.4844 65.6719 41.7656C65.9427 42.1094 66.2969 42.3646 66.7344 42.5312C67.1719 42.6979 67.7031 42.7812 68.3281 42.7812C68.8281 42.7812 69.2865 42.6875 69.7031 42.5C70.1198 42.3021 70.474 42.0365 70.7656 41.7031C71.0573 41.3698 71.2812 40.974 71.4375 40.5156C71.6042 40.0469 71.6875 39.5469 71.6875 39.0156V23.25ZM96.0469 36.2969C96.0469 37.276 95.9583 38.2083 95.7812 39.0938C95.6042 39.9688 95.349 40.7812 95.0156 41.5312C94.6615 42.2812 94.224 42.9688 93.7031 43.5938C93.1823 44.2188 92.5885 44.7396 91.9219 45.1562C91.3177 45.5208 90.651 45.8021 89.9219 46C89.2031 46.2083 88.4271 46.3125 87.5938 46.3125C86.7083 46.3125 85.8906 46.1979 85.1406 45.9688C84.3906 45.7396 83.7083 45.4167 83.0938 45C82.4896 44.5625 81.9479 44.0365 81.4688 43.4219C80.9896 42.7969 80.5885 42.0938 80.2656 41.3125C79.974 40.5938 79.75 39.8125 79.5938 38.9688C79.4479 38.125 79.375 37.2344 79.375 36.2969V32.9844C79.375 31.9844 79.4583 31.0365 79.625 30.1406C79.8021 29.2448 80.0573 28.4167 80.3906 27.6562C80.7135 26.9375 81.1042 26.2865 81.5625 25.7031C82.0312 25.1198 82.5677 24.6198 83.1719 24.2031C83.7656 23.7969 84.4323 23.4844 85.1719 23.2656C85.9115 23.0469 86.7135 22.9375 87.5781 22.9375C88.4531 22.9375 89.2708 23.0521 90.0312 23.2812C90.8021 23.5 91.4948 23.8177 92.1094 24.2344C92.724 24.6302 93.2604 25.1094 93.7188 25.6719C94.1875 26.2344 94.5885 26.8542 94.9219 27.5312C95.2865 28.3021 95.5625 29.1458 95.75 30.0625C95.9479 30.9792 96.0469 31.9531 96.0469 32.9844V36.2969ZM91.5938 32.9531C91.5938 32.3698 91.5625 31.8177 91.5 31.2969C91.4479 30.7656 91.3594 30.276 91.2344 29.8281C91.0781 29.2656 90.8698 28.7656 90.6094 28.3281C90.349 27.8802 90.0417 27.5156 89.6875 27.2344C89.4062 27.026 89.0885 26.8646 88.7344 26.75C88.3906 26.6354 88.0052 26.5781 87.5781 26.5781C87.1719 26.5781 86.8021 26.6302 86.4688 26.7344C86.1458 26.8385 85.8542 26.9896 85.5938 27.1875C85.2396 27.4792 84.9375 27.8438 84.6875 28.2812C84.4479 28.7188 84.2604 29.2292 84.125 29.8125C84.0208 30.2604 83.9427 30.75 83.8906 31.2812C83.849 31.8125 83.8281 32.3698 83.8281 32.9531V36.2969C83.8281 36.849 83.849 37.3802 83.8906 37.8906C83.9323 38.401 84.0052 38.875 84.1094 39.3125C84.224 39.8646 84.3906 40.3698 84.6094 40.8281C84.8385 41.276 85.1042 41.6406 85.4062 41.9219C85.6875 42.1719 86.0052 42.3646 86.3594 42.5C86.724 42.6354 87.1354 42.7031 87.5938 42.7031C88.0312 42.7031 88.4323 42.6406 88.7969 42.5156C89.1615 42.3906 89.4844 42.2083 89.7656 41.9688C90.1198 41.6771 90.4167 41.3125 90.6562 40.875C90.9062 40.4271 91.1042 39.9219 91.25 39.3594C91.3646 38.9219 91.4479 38.4427 91.5 37.9219C91.5625 37.401 91.5938 36.8594 91.5938 36.2969V32.9531ZM115.031 43.3438C114.75 43.6875 114.365 44.0365 113.875 44.3906C113.385 44.7448 112.807 45.0625 112.141 45.3438C111.464 45.6354 110.708 45.8698 109.875 46.0469C109.042 46.224 108.146 46.3125 107.188 46.3125C106.354 46.3125 105.568 46.2135 104.828 46.0156C104.099 45.8281 103.427 45.5521 102.812 45.1875C102.208 44.8125 101.656 44.3542 101.156 43.8125C100.667 43.2708 100.25 42.651 99.9062 41.9531C99.5104 41.1823 99.2083 40.3125 99 39.3438C98.8021 38.375 98.7031 37.3229 98.7031 36.1875V33.0938C98.7031 32.0104 98.8021 31.0052 99 30.0781C99.1979 29.1406 99.4792 28.2917 99.8438 27.5312C100.188 26.8542 100.583 26.2448 101.031 25.7031C101.49 25.1615 101.99 24.6927 102.531 24.2969C103.167 23.849 103.859 23.5104 104.609 23.2812C105.359 23.0521 106.151 22.9375 106.984 22.9375C108.266 22.9375 109.38 23.099 110.328 23.4219C111.286 23.7448 112.094 24.2083 112.75 24.8125C113.406 25.4271 113.917 26.1719 114.281 27.0469C114.656 27.9219 114.901 28.9062 115.016 30H110.734C110.661 29.4479 110.547 28.9583 110.391 28.5312C110.245 28.1042 110.042 27.7448 109.781 27.4531C109.49 27.1302 109.12 26.8906 108.672 26.7344C108.234 26.5677 107.708 26.4844 107.094 26.4844C106.76 26.4844 106.438 26.5365 106.125 26.6406C105.812 26.7448 105.521 26.8958 105.25 27.0938C104.896 27.3646 104.573 27.7188 104.281 28.1562C104 28.5938 103.766 29.1094 103.578 29.7031C103.432 30.1615 103.318 30.6719 103.234 31.2344C103.161 31.7969 103.125 32.4062 103.125 33.0625V36.1875C103.125 37.0104 103.177 37.7604 103.281 38.4375C103.396 39.1146 103.552 39.7135 103.75 40.2344C103.875 40.5365 104.016 40.8177 104.172 41.0781C104.339 41.3281 104.521 41.5521 104.719 41.75C105.052 42.0833 105.438 42.3385 105.875 42.5156C106.323 42.6823 106.828 42.7708 107.391 42.7812C107.734 42.7812 108.073 42.7552 108.406 42.7031C108.74 42.651 109.052 42.5781 109.344 42.4844C109.635 42.3906 109.891 42.2865 110.109 42.1719C110.339 42.0469 110.51 41.9167 110.625 41.7812L110.641 37.6562H106.875V34.375H115.016L115.031 43.3438ZM129.797 41.25H122.969L121.625 46H117L124.453 23.25H128.438L135.75 46H131.125L129.797 41.25ZM124.047 37.5156H128.766L126.438 29.1406L124.047 37.5156ZM145.547 37.5H142.219V46H137.828V23.25H145.453C146.714 23.25 147.854 23.401 148.875 23.7031C149.896 23.9948 150.771 24.4271 151.5 25C152.219 25.5729 152.771 26.2865 153.156 27.1406C153.552 27.9948 153.75 28.9844 153.75 30.1094C153.75 30.9219 153.651 31.6562 153.453 32.3125C153.266 32.9583 152.995 33.5365 152.641 34.0469C152.276 34.5677 151.839 35.0208 151.328 35.4062C150.828 35.7917 150.266 36.125 149.641 36.4062L154.531 45.7969V46H149.828L145.547 37.5ZM142.219 33.9375H145.469C146.146 33.9375 146.74 33.8438 147.25 33.6562C147.771 33.4583 148.193 33.1771 148.516 32.8125C148.786 32.5208 148.99 32.1719 149.125 31.7656C149.271 31.3594 149.344 30.9062 149.344 30.4062C149.344 29.8021 149.25 29.2708 149.062 28.8125C148.885 28.3438 148.615 27.9583 148.25 27.6562C147.927 27.3854 147.531 27.1771 147.062 27.0312C146.594 26.8854 146.057 26.8125 145.453 26.8125H142.219V33.9375Z" fill="white"/>
<defs>
<filter id="filter0_g_208_3" x="0.9" y="0.9" width="211.2" height="65.2" filterUnits="userSpaceOnUse" color-interpolation-filters="sRGB">
<feFlood flood-opacity="0" result="BackgroundImageFix"/>
<feBlend mode="normal" in="SourceGraphic" in2="BackgroundImageFix" result="shape"/>
<feTurbulence type="fractalNoise" baseFrequency="2 2" numOctaves="3" seed="2838" />
<feDisplacementMap in="shape" scale="14.199999809265137" xChannelSelector="R" yChannelSelector="G" result="displacedImage" width="100%" height="100%" />
<feMerge result="effect1_texture_208_3">
<feMergeNode in="displacedImage"/>
</feMerge>
</filter>
<linearGradient id="paint0_linear_208_3" x1="101" y1="25" x2="144" y2="59" gradientUnits="userSpaceOnUse">
<stop stop-color="#28A22E"/>
<stop offset="1" stop-color="#45BD4B"/>
</linearGradient>
</defs>
</svg>
